<?xml version="1.0" standalone="yes"?>
<svg width="50" height="50">
<path style="fill:#ffffff; stroke:none;" d="M0 0L0 50L50 50L50 0L0 0z"/>
<path style="fill:#13171a; stroke:none;" d="M10 3L11 4L10 3z"/>
<path style="fill:#a2c0da; stroke:none;" d="M11 3L11 4L39 4L11 3z"/>
<path style="fill:#13171a; stroke:none;" d="M39 3L40 4L39 3z"/>
<path style="fill:#090b0d; stroke:none;" d="M9 4L10 5L9 4z"/>
<path style="fill:#bbdefb; stroke:none;" d="M10 4L10 19L40 19L40 4L10 4z"/>
<path style="fill:#0e1114; stroke:none;" d="M40 4L41 5L40 4z"/>
<path style="fill:#75899d; stroke:none;" d="M9 5L9 19L10 19L9 5M40 5L40 19L41 19L40 5z"/>
<path style="fill:#87a3de; stroke:none;" d="M14 8L14 16L17 16L17 8L14 8z"/>
<path style="fill:#3f51b5; stroke:none;" d="M15 9L15 15L16 15L15 9z"/>
<path style="fill:#64b5f6; stroke:none;" d="M9 19L9 21L41 21L41 19L9 19z"/>
<path style="fill:#75899d; stroke:none;" d="M9 21L9 47L10 47L9 21z"/>
<path style="fill:#bbdefb; stroke:none;" d="M10 21L10 46L40 46L40 21L10 21z"/>
<path style="fill:#75899d; stroke:none;" d="M40 21L40 47L41 47L40 21z"/>
<path style="fill:#87a3de; stroke:none;" d="M14 24L14 35L15 35L14 24z"/>
<path style="fill:#3f51b5; stroke:none;" d="M15 24L15 35L16 35L15 24z"/>
<path style="fill:#687fcc; stroke:none;" d="M16 24L16 35L17 35L16 24z"/>
<path style="fill:#a2c0da; stroke:none;" d="M10 46L10 47L40 47L10 46z"/>
</svg>
