<?xml version="1.0" standalone="yes"?>
<svg width="50" height="50">
<path style="fill:#ffffff; stroke:none;" d="M0 0L0 50L50 50L50 0L0 0z"/>
<path style="fill:#2d3c42; stroke:none;" d="M6 11L6 34L21 34L21 36L14 36L14 37L22 37L22 33L7 33L7 12L43 12L43 33L28 33L28 37L36 37L36 36L29 36L29 34L44 34L44 11L6 11z"/>
<path style="fill:#546e7a; stroke:none;" d="M7 12L7 33L43 33L43 12L7 12z"/>
<path style="fill:#83a2b5; stroke:none;" d="M8 13L8 14L42 14L8 13z"/>
<path style="fill:#99b9d0; stroke:none;" d="M8 14L8 31L9 31L8 14z"/>
<path style="fill:#bbdefb; stroke:none;" d="M9 14L9 31L41 31L41 14L9 14z"/>
<path style="fill:#99b9d0; stroke:none;" d="M41 14L41 31L42 31L41 14z"/>
<path style="fill:#6e8a9a; stroke:none;" d="M8 31L8 32L42 32L8 31z"/>
<path style="fill:#455a64; stroke:none;" d="M22 33L22 37L14 37L14 38L36 38L36 37L28 37L28 33L22 33z"/>
<path style="fill:#243034; stroke:none;" d="M13 37C16.2217 40.6869 33.7783 40.6869 37 37L13 37z"/>
</svg>
