<?xml version="1.0" standalone="yes"?>
<svg width="50" height="50">
<path style="fill:#ffffff; stroke:none;" d="M0 0L0 50L50 50L50 0L0 0z"/>
<path style="fill:#b82c00; stroke:none;" d="M23 5L23 6L27 6L23 5z"/>
<path style="fill:#ff3d00; stroke:none;" d="M47 44C46.4567 33.5489 37.5659 22.6823 32.2276 13.9105C30.3267 10.787 28.2066 4.63974 23.3356 6.62269C16.4908 9.40918 10.3704 26.77 6.60031 32.9961C5.29157 35.1575 1.13386 39.7512 3.08256 42.436C5.01518 45.0986 11.1789 44 14 44L47 44z"/>
<path style="fill:#280900; stroke:none;" d="M21 7L22 8L21 7z"/>
<path style="fill:#c88c79; stroke:none;" d="M24.6667 9.33333L25.3333 9.66667L24.6667 9.33333z"/>
<path style="fill:#842000; stroke:none;" d="M19.3333 10.6667L19.6667 11.3333L19.3333 10.6667z"/>
<path style="fill:#ffffff; stroke:none;" d="M24 10L6 41L44 41L26 10L24 10z"/>
<path style="fill:#831e00; stroke:none;" d="M30.3333 10.6667L30.6667 11.3333L30.3333 10.6667z"/>
<path style="fill:#220700; stroke:none;" d="M18 12L19 13L18 12z"/>
<path style="fill:#250800; stroke:none;" d="M31 12L32 13L31 12z"/>
<path style="fill:#4b1100; stroke:none;" d="M32 14L33 15L32 14z"/>
<path style="fill:#7c1d00; stroke:none;" d="M16.3333 15.6667L16.6667 16.3333L16.3333 15.6667z"/>
<path style="fill:#7b1e00; stroke:none;" d="M33.3333 15.6667L33.6667 16.3333L33.3333 15.6667z"/>
<path style="fill:#1c0600; stroke:none;" d="M15 17L16 18L15 17z"/>
<path style="fill:#420f00; stroke:none;" d="M14 19L15 20L14 19z"/>
<path style="fill:#741b00; stroke:none;" d="M13.3333 20.6667L13.6667 21.3333L13.3333 20.6667z"/>
<path style="fill:#455a64; stroke:none;" d="M25 21L25 23L26 24L28 24L29 20L25 21z"/>
<path style="fill:#731c00; stroke:none;" d="M36.3333 20.6667L36.6667 21.3333L36.3333 20.6667z"/>
<path style="fill:#a42700; stroke:none;" d="M12.3333 22.6667L12.6667 23.3333L12.3333 22.6667z"/>
<path style="fill:#a32700; stroke:none;" d="M37.3333 22.6667L37.6667 23.3333L37.3333 22.6667z"/>
<path style="fill:#3a0d00; stroke:none;" d="M11 24L12 25L11 24z"/>
<path style="fill:#455a64; stroke:none;" d="M17 39L20 34L22 34L25 39L23 31L30 35L28 39L36 39L34 33L30 34C28.7458 30.7518 22.8715 18.0687 18.1559 26.2284C16.7107 28.7291 17.6727 35.7274 17 39z"/>
<path style="fill:#3e0e00; stroke:none;" d="M38 24L39 25L38 24z"/>
<path style="fill:#6b1900; stroke:none;" d="M10.3333 25.6667L10.6667 26.3333L10.3333 25.6667z"/>
<path style="fill:#6a1900; stroke:none;" d="M39.3333 25.6667L39.6667 26.3333L39.3333 25.6667z"/>
<path style="fill:#c7cdd0; stroke:none;" d="M20 26L19 28L21 28L20 26z"/>
<path style="fill:#9b2500; stroke:none;" d="M9.33333 27.6667L9.66667 28.3333L9.33333 27.6667z"/>
<path style="fill:#9a2400; stroke:none;" d="M40.3333 27.6667L40.6667 28.3333L40.3333 27.6667z"/>
<path style="fill:#320b00; stroke:none;" d="M8 29L9 30L8 29z"/>
<path style="fill:#bac2c6; stroke:none;" d="M24 29L26 31L26 29L24 29z"/>
<path style="fill:#360c00; stroke:none;" d="M41 29L42 30L41 29z"/>
<path style="fill:#631700; stroke:none;" d="M7.33333 30.6667L7.66667 31.3333L7.33333 30.6667z"/>
<path style="fill:#621700; stroke:none;" d="M42.3333 30.6667L42.6667 31.3333L42.3333 30.6667z"/>
<path style="fill:#cf9e8f; stroke:none;" d="M11 31L12 32L11 31z"/>
<path style="fill:#7e8c93; stroke:none;" d="M18.3333 31.6667L18.6667 32.3333L18.3333 31.6667z"/>
<path style="fill:#d1a395; stroke:none;" d="M38 31L39 32L38 31z"/>
<path style="fill:#932300; stroke:none;" d="M6.33333 32.6667L6.66667 33.3333L6.33333 32.6667z"/>
<path style="fill:#922200; stroke:none;" d="M43.3333 32.6667L43.6667 33.3333L43.3333 32.6667z"/>
<path style="fill:#9aa6ab; stroke:none;" d="M30.6667 33.3333L31.3333 33.6667L30.6667 33.3333z"/>
<path style="fill:#2b0a00; stroke:none;" d="M5 34L6 35L5 34z"/>
<path style="fill:#8f9ba1; stroke:none;" d="M24 34L24 37L25 37L24 34z"/>
<path style="fill:#2e0a00; stroke:none;" d="M44 34L45 35L44 34z"/>
<path style="fill:#5b1500; stroke:none;" d="M4.33333 35.6667L4.66667 36.3333L4.33333 35.6667z"/>
<path style="fill:#7e8c93; stroke:none;" d="M17.3333 35.6667L17.6667 36.3333L17.3333 35.6667z"/>
<path style="fill:#a9b3b7; stroke:none;" d="M22 35L22 38L23 38L22 35z"/>
<path style="fill:#5a1500; stroke:none;" d="M45.3333 35.6667L45.6667 36.3333L45.3333 35.6667z"/>
<path style="fill:#cb9382; stroke:none;" d="M8 36L9 37L8 36z"/>
<path style="fill:#bfc6ca; stroke:none;" d="M19.3333 36.6667L19.6667 37.3333L19.3333 36.6667z"/>
<path style="fill:#cd9988; stroke:none;" d="M41 36L42 37L41 36z"/>
<path style="fill:#8b2100; stroke:none;" d="M3.33333 37.6667L3.66667 38.3333L3.33333 37.6667z"/>
<path style="fill:#8a2100; stroke:none;" d="M46.3333 37.6667L46.6667 38.3333L46.3333 37.6667z"/>
<path style="fill:#8f9ca2; stroke:none;" d="M27 38L36 40L36 39L27 38z"/>
<path style="fill:#adb7bb; stroke:none;" d="M23.6667 39.3333L24.3333 39.6667L23.6667 39.3333z"/>
<path style="fill:#bf2d00; stroke:none;" d="M47 39L47 44L48 44L47 39z"/>
<path style="fill:#c68571; stroke:none;" d="M6 41L6 42L44 42C33.9641 37.7887 16.9106 41 6 41z"/>
<path style="fill:#4a1100; stroke:none;" d="M2 43L3 44L2 43z"/>
<path style="fill:#cc3100; stroke:none;" d="M3 44L3 45L47 45C35.5366 40.1898 15.4804 44 3 44z"/>
</svg>
