<?xml version="1.0" standalone="yes"?>
<svg width="50" height="50">
<path style="fill:#ffffff; stroke:none;" d="M0 0L0 50L50 50L50 0L0 0z"/>
<path style="fill:#ef6c00; stroke:none;" d="M3 16L15 11C9.13108 8.17957 3.55504 8.72429 3 16z"/>
<path style="fill:#8e4000; stroke:none;" d="M10 9L10 10L30 10L10 9z"/>
<path style="fill:#d15f00; stroke:none;" d="M30 9L30 10C32.8523 11.1321 35.5983 12.2858 37.9846 14.2747C57.4236 30.4762 12.6431 47.5211 4 31C12.6429 34.5926 21.8542 37.1545 30.9992 33.0301C36.305 30.6372 40.8331 24.9242 37.8202 19.0154C32.6204 8.81779 10.4664 6.02478 4.02778 16.4676C0.925493 21.4992 3 32.2165 3 38L4 38L5 36C15.6706 43.9403 42.0983 39.3722 45 25L46 25C45.966 34.6293 39.8826 37.8901 31 40C45.5873 46.0639 47 33.5665 47 23C47 19.8783 48.0457 14.2216 45.9722 11.6034C43.5525 8.54789 33.6779 9.07591 30 9z"/>
<path style="fill:#8e4000; stroke:none;" d="M36 9L36 10L45 10L36 9z"/>
<path style="fill:#ef6c00; stroke:none;" d="M24 10L24 11C35.923 13.8334 45.1863 26.2057 30 33.0301C20.6275 37.2418 12.9613 33.5806 4 31C5.83513 36.828 11.6093 36.9732 17 36.9992C24.1093 37.0335 31.9769 36.7835 37.9568 32.3511C47.0286 25.6268 43.6806 15.2081 34 11.287C30.767 9.97754 27.4243 10.0098 24 10M12 13.6381C4.93084 15.6855 0.424815 24.4646 7.22839 29.8912C12.605 34.1796 21.7654 33.8046 28 31.7755C35.8177 29.2312 40.0318 21.1347 31.9807 15.7276C26.9208 12.3294 17.743 11.9748 12 13.6381z"/>
<path style="fill:#c45900; stroke:none;" d="M14.0039 15.6528C-1.17823 20.4802 13.9279 33.6912 24.9992 30.196C40.5199 25.2961 25.1479 12.1094 14.0039 15.6528z"/>
<path style="fill:#ef6c00; stroke:none;" d="M14.0193 17.7423C2.2986 22.4296 17.3352 31.1602 24.9807 28.1065C36.8857 23.3515 21.6359 14.6963 14.0193 17.7423z"/>
<path style="fill:#c45900; stroke:none;" d="M15.3225 20.027C8.87396 24.3908 20.4098 28.4931 24.6775 25.6829C30.9515 21.5516 19.3702 17.2879 15.3225 20.027z"/>
<path style="fill:#eb6b00; stroke:none;" d="M15 22L15 24L25 24L25 22L15 22z"/>
<path style="fill:#ef6c00; stroke:none;" d="M45 25C39.4561 41.2968 17.2051 41.0853 4 36L4 40C14.1825 40 27.3792 42.2141 37 38.5316C43.3208 36.1123 47.9609 32.0577 45 25z"/>
<path style="fill:#482000; stroke:none;" d="M3 38L4 39L3 38z"/>
<path style="fill:#472000; stroke:none;" d="M46 38L47 39L46 38z"/>
<path style="fill:#8e4000; stroke:none;" d="M5 40L5 41L31 41L5 40M38 40L38 41L45 41L38 40z"/>
</svg>
