<?xml version="1.0" standalone="yes"?>
<svg width="50" height="50">
<path style="fill:#ffffff; stroke:none;" d="M0 0L0 50L50 50L50 0L0 0z"/>
<path style="fill:#5a3c5f; stroke:none;" d="M31 8L34 7L31 8z"/>
<path style="fill:#ba68c8; stroke:none;" d="M27 14L33 14L34 7L27 14z"/>
<path style="fill:#261b28; stroke:none;" d="M34 7L35 8L34 7z"/>
<path style="fill:#49294f; stroke:none;" d="M30 8L31 9L30 8z"/>
<path style="fill:#ce93d8; stroke:none;" d="M33 8L33 14L42 14L33 8z"/>
<path style="fill:#000000; stroke:none;" d="M35.6667 8.33333L36.3333 8.66667L35.6667 8.33333z"/>
<path style="fill:#1f1122; stroke:none;" d="M29 9L30 10L29 9z"/>
<path style="fill:#0e0a0f; stroke:none;" d="M37 9L38 10L37 9z"/>
<path style="fill:#080408; stroke:none;" d="M28 10L29 11L28 10z"/>
<path style="fill:#38273a; stroke:none;" d="M38 10L39 11L38 10z"/>
<path style="fill:#030203; stroke:none;" d="M40 11L41 12L40 11z"/>
<path style="fill:#49294f; stroke:none;" d="M27 12L28 13L27 12z"/>
<path style="fill:#1a131c; stroke:none;" d="M41 12L42 13L41 12z"/>
<path style="fill:#7c5882; stroke:none;" d="M26 13L26 16L27 16L44 15L44 14L26 13z"/>
<path style="fill:#9c27b0; stroke:none;" d="M27 15L31 30L38 34L43 34C40.817 25.5941 35.401 17.4752 27 15z"/>
<path style="fill:#4a148c; stroke:none;" d="M28 15L28 16L34 17L28 15z"/>
<path style="fill:#000000; stroke:none;" d="M26.3333 16.6667L26.6667 17.3333L26.3333 16.6667z"/>
<path style="fill:#561563; stroke:none;" d="M34.3333 17.6667L34.6667 18.3333L34.3333 17.6667z"/>
<path style="fill:#1f0723; stroke:none;" d="M27.3333 18.6667L27.6667 19.3333L27.3333 18.6667z"/>
<path style="fill:#15041c; stroke:none;" d="M13.3333 19.6667L13.6667 20.3333L13.3333 19.6667z"/>
<path style="fill:#7b1fa2; stroke:none;" d="M14 20L16 27L26 26L14 20z"/>
<path style="fill:#040006; stroke:none;" d="M18.6667 21.3333L19.3333 21.6667L18.6667 21.3333z"/>
<path style="fill:#120414; stroke:none;" d="M28.3333 21.6667L28.6667 22.3333L28.3333 21.6667z"/>
<path style="fill:#030005; stroke:none;" d="M14.3333 22.6667L14.6667 23.3333L14.3333 22.6667z"/>
<path style="fill:#000000; stroke:none;" d="M21.6667 22.3333L22.3333 22.6667L21.6667 22.3333z"/>
<path style="fill:#461250; stroke:none;" d="M37.3333 22.6667L37.6667 23.3333L37.3333 22.6667z"/>
<path style="fill:#0e0313; stroke:none;" d="M23.6667 23.3333L24.3333 23.6667L23.6667 23.3333z"/>
<path style="fill:#15041c; stroke:none;" d="M15.3333 24.6667L15.6667 25.3333L15.3333 24.6667z"/>
<path style="fill:#040006; stroke:none;" d="M26.6667 24.3333L27.3333 24.6667L26.6667 24.3333z"/>
<path style="fill:#4a148c; stroke:none;" d="M16 28L39 33L39 32C33.893 30.7679 31.619 29.0406 30 24L16 28z"/>
<path style="fill:#5e176c; stroke:none;" d="M38.3333 24.6667L38.6667 25.3333L38.3333 24.6667z"/>
<path style="fill:#8b6391; stroke:none;" d="M6 27L8 29L8 27L6 27z"/>
<path style="fill:#3a293d; stroke:none;" d="M8 27L8 28L11 28L8 27z"/>
<path style="fill:#350d3c; stroke:none;" d="M40.3333 27.6667L40.6667 28.3333L40.3333 27.6667z"/>
<path style="fill:#ce93d8; stroke:none;" d="M8 28C17.5124 48.4273 27.8031 38.8472 44 35L8 28z"/>
<path style="fill:#75547a; stroke:none;" d="M12.6667 28.3333L13.3333 28.6667L12.6667 28.3333z"/>
<path style="fill:#221823; stroke:none;" d="M14 28L14 29L17 29L14 28z"/>
<path style="fill:#000000; stroke:none;" d="M7 29L8 30L7 29z"/>
<path style="fill:#4e1459; stroke:none;" d="M41.3333 29.6667L41.6667 30.3333L41.3333 29.6667z"/>
<path style="fill:#030203; stroke:none;" d="M8 30L9 31L8 30z"/>
<path style="fill:#0a070b; stroke:none;" d="M9 31L10 32L9 31z"/>
<path style="fill:#904eb3; stroke:none;" d="M28 31L28 32L31 32L28 31z"/>
<path style="fill:#150f16; stroke:none;" d="M10 32L11 33L10 32z"/>
<path style="fill:#9850b6; stroke:none;" d="M33.6667 32.3333L34.3333 32.6667L33.6667 32.3333z"/>
<path style="fill:#231824; stroke:none;" d="M11 33L12 34L11 33z"/>
<path style="fill:#26092a; stroke:none;" d="M43 33L44 34L43 33z"/>
<path style="fill:#38283b; stroke:none;" d="M12 34L13 35L12 34z"/>
<path style="fill:#4f3752; stroke:none;" d="M13 35L14 36L13 35z"/>
<path style="fill:#ba68c8; stroke:none;" d="M20 43L20 44C30.2636 44 37.8211 45.3889 43 35L20 43z"/>
<path style="fill:#190d1c; stroke:none;" d="M43 35L44 36L43 35z"/>
<path style="fill:#694a6e; stroke:none;" d="M14 36L15 37L14 36z"/>
<path style="fill:#4a2951; stroke:none;" d="M42 36L43 37L42 36z"/>
<path style="fill:#000000; stroke:none;" d="M14 37L15 38L14 37z"/>
<path style="fill:#030203; stroke:none;" d="M15 38L16 39L15 38z"/>
<path style="fill:#0a070b; stroke:none;" d="M16 39L17 40L16 39z"/>
<path style="fill:#070408; stroke:none;" d="M40 39L41 40L40 39z"/>
<path style="fill:#150f16; stroke:none;" d="M17 40L18 41L17 40z"/>
<path style="fill:#301933; stroke:none;" d="M39 40L40 41L39 40z"/>
<path style="fill:#231824; stroke:none;" d="M18 41L19 42L18 41z"/>
<path style="fill:#342436; stroke:none;" d="M19 42L20 43L19 42z"/>
</svg>
