<?xml version="1.0" standalone="yes"?>
<svg width="50" height="50">
<path style="fill:#ffffff; stroke:none;" d="M0 0L0 50L50 50L50 0L0 0z"/>
<path style="fill:#4c2b86; stroke:none;" d="M18 4L18 5L32 5L18 4z"/>
<path style="fill:#1d1035; stroke:none;" d="M17 5L17 11L18 11L17 5z"/>
<path style="fill:#673ab7; stroke:none;" d="M18 5L18 10L32 10L32 5L18 5z"/>
<path style="fill:#1d1035; stroke:none;" d="M32 5L32 11L33 11L32 5z"/>
<path style="fill:#7f6ba1; stroke:none;" d="M18 10L18 11L32 11L18 10z"/>
<path style="fill:#211f24; stroke:none;" d="M16 11L17 12L16 11z"/>
<path style="fill:#d1c4e9; stroke:none;" d="M13 20L37 20C35.5734 7.20053 14.6896 7.36892 13 20z"/>
<path style="fill:#26232a; stroke:none;" d="M33 11L34 12L33 11z"/>
<path style="fill:#0f0e10; stroke:none;" d="M15 12L16 13L15 12z"/>
<path style="fill:#161519; stroke:none;" d="M34 12L35 13L34 12z"/>
<path style="fill:#030304; stroke:none;" d="M14 13L15 14L14 13z"/>
<path style="fill:#080709; stroke:none;" d="M35 13L36 14L35 13z"/>
<path style="fill:#7e758c; stroke:none;" d="M14 14L15 15L14 14z"/>
<path style="fill:#010102; stroke:none;" d="M36 14L37 15L36 14z"/>
<path style="fill:#5b5665; stroke:none;" d="M13 15L14 16L13 15z"/>
<path style="fill:#6b6376; stroke:none;" d="M36 15L37 16L36 15z"/>
<path style="fill:#6b6579; stroke:none;" d="M12 16L12 20L13 20L12 16z"/>
<path style="fill:#655e74; stroke:none;" d="M37 16L37 20L38 20L37 16z"/>
<path style="fill:#040404; stroke:none;" d="M12 20L13 21L12 20z"/>
<path style="fill:#595168; stroke:none;" d="M13 20L14 21L13 20z"/>
<path style="fill:#b39ddb; stroke:none;" d="M14 20L14 24L36 24L36 20L14 20z"/>
<path style="fill:#474053; stroke:none;" d="M36 20L37 21L36 20z"/>
<path style="fill:#686174; stroke:none;" d="M12 23L12 35L13 35L14 23L12 23z"/>
<path style="fill:#554d64; stroke:none;" d="M36 23L37 24L36 23z"/>
<path style="fill:#010101; stroke:none;" d="M37 23L38 24L37 23z"/>
<path style="fill:#d1c4e9; stroke:none;" d="M13 24L13 34L37 34L37 24L13 24z"/>
<path style="fill:#686174; stroke:none;" d="M37 24L37 35L38 35L37 24z"/>
<path style="fill:#b39ddb; stroke:none;" d="M13 34L14 39L37 39L37 34L13 34z"/>
<path style="fill:#070709; stroke:none;" d="M13 35L14 36L13 35z"/>
<path style="fill:#020203; stroke:none;" d="M36 35L37 36L36 35z"/>
<path style="fill:#686174; stroke:none;" d="M12 38L12 44L13 44L14 38L12 38M37 38L37 44L38 44L37 38z"/>
<path style="fill:#d1c4e9; stroke:none;" d="M13 39C13.8021 49.5148 36.1979 49.5148 37 39L13 39z"/>
<path style="fill:#6d6779; stroke:none;" d="M13 44L14 45L13 44z"/>
<path style="fill:#6d667a; stroke:none;" d="M36 44L37 45L36 44z"/>
<path style="fill:#534d5d; stroke:none;" d="M14 45L15 46L14 45z"/>
<path style="fill:#514c5a; stroke:none;" d="M35 45L36 46L35 45z"/>
<path style="fill:#0d0c0f; stroke:none;" d="M16 46L16 47L34 47L16 46z"/>
</svg>
