<?xml version="1.0" standalone="yes"?>
<svg width="50" height="50">
<path style="fill:#ffffff; stroke:none;" d="M0 0L0 50L50 50L50 0L0 0z"/>
<path style="fill:#73a2c7; stroke:none;" d="M15 7L23 7C20.7681 4.4458 17.2319 4.4458 15 7z"/>
<path style="fill:#1976d2; stroke:none;" d="M23 5L20 13L25 13L22 20L26 20L25 23L29 18L25 18L27 12L23 12L26 5L23 5z"/>
<path style="fill:#73a2c7; stroke:none;" d="M26 5L26 6L34 8C35.5413 3.91132 28.6161 5 26 5z"/>
<path style="fill:#90caf9; stroke:none;" d="M18 43L18 44L32 44L32 43C29.2011 41.5883 26.7477 39.6418 27.3765 36.0424C28.0158 32.3836 32.0902 30.8023 33.9907 27.8958C36.4042 24.2051 36.2218 19.2333 35.9097 15C35.3618 7.56789 26.1712 1.05032 24 11L28 11L25 18L29 18L25 23L26 20L22 20L24 14L20 14L22 6C12.3332 6.31744 11.516 21.0244 16.0093 27.8958C17.9098 30.8023 21.9842 32.3836 22.6235 36.0424C23.2523 39.6418 20.7989 41.5883 18 43z"/>
<path style="fill:#141c23; stroke:none;" d="M14.3333 8.66667L14.6667 9.33333L14.3333 8.66667z"/>
<path style="fill:#131b21; stroke:none;" d="M35.3333 8.66667L35.6667 9.33333L35.3333 8.66667z"/>
<path style="fill:#446177; stroke:none;" d="M14.3333 10.6667L14.6667 11.3333L14.3333 10.6667z"/>
<path style="fill:#509de4; stroke:none;" d="M23 10L28 13L23 10z"/>
<path style="fill:#435f76; stroke:none;" d="M35.3333 10.6667L35.6667 11.3333L35.3333 10.6667z"/>
<path style="fill:#509de4; stroke:none;" d="M20 13L20 14L25 15L20 13z"/>
<path style="fill:#3e576a; stroke:none;" d="M13 15L13 24L14 24L13 15M36 15L36 24L37 24L36 15z"/>
<path style="fill:#4c6a83; stroke:none;" d="M14 25L15 26L14 25z"/>
<path style="fill:#4b6980; stroke:none;" d="M35 25L36 26L35 25z"/>
<path style="fill:#0e1419; stroke:none;" d="M14 26L15 27L14 26z"/>
<path style="fill:#0d1317; stroke:none;" d="M35 26L36 27L35 26z"/>
<path style="fill:#47647c; stroke:none;" d="M15 27L16 28L15 27z"/>
<path style="fill:#466279; stroke:none;" d="M34 27L35 28L34 27z"/>
<path style="fill:#020405; stroke:none;" d="M15 28L16 29L15 28z"/>
<path style="fill:#020304; stroke:none;" d="M34 28L35 29L34 28z"/>
<path style="fill:#0a0f13; stroke:none;" d="M16 29L17 30L16 29z"/>
<path style="fill:#0b1014; stroke:none;" d="M33 29L34 30L33 29z"/>
<path style="fill:#0a0f13; stroke:none;" d="M17 30L18 31L17 30z"/>
<path style="fill:#0c1115; stroke:none;" d="M32 30L33 31L32 30z"/>
<path style="fill:#010102; stroke:none;" d="M18 31L19 32L18 31z"/>
<path style="fill:#405b6f; stroke:none;" d="M19 31L20 32L19 31z"/>
<path style="fill:#3f596e; stroke:none;" d="M30 31L31 32L30 31z"/>
<path style="fill:#010102; stroke:none;" d="M31 31L32 32L31 31z"/>
<path style="fill:#3e576a; stroke:none;" d="M20.6667 32.3333L21.3333 32.6667L20.6667 32.3333z"/>
<path style="fill:#080c0f; stroke:none;" d="M28.6667 32.3333L29.3333 32.6667L28.6667 32.3333z"/>
<path style="fill:#0b1014; stroke:none;" d="M22 33L22 41L23 41L22 33M27 33L27 41L28 41L27 33z"/>
<path style="fill:#11181e; stroke:none;" d="M21 41L22 42L21 41z"/>
<path style="fill:#0e1419; stroke:none;" d="M28 41L29 42L28 41z"/>
<path style="fill:#283845; stroke:none;" d="M18 42L18 43L21 43L18 42z"/>
<path style="fill:#1b2730; stroke:none;" d="M29 42L29 43L32 43L29 42z"/>
<path style="fill:#2a3c4a; stroke:none;" d="M15 43L15 45L17 43L15 43z"/>
<path style="fill:#73a2c7; stroke:none;" d="M16 44L16 45C20.9301 45 30.5871 46.9056 34 43L16 44z"/>
<path style="fill:#2a3c4a; stroke:none;" d="M34.3333 43.6667L34.6667 44.3333L34.3333 43.6667z"/>
</svg>
