<svg id="Camada_1" data-name="Camada 1" xmlns="http://www.w3.org/2000/svg" viewBox="0 0 297.08 97.85"><defs><style>.cls-1{font-size:43.39px;font-family:Arial-Black, Arial;font-weight:800;}.cls-1,.cls-5{fill:#2f2e41;}.cls-2,.cls-3,.cls-4{fill:#838bc5;}.cls-3{letter-spacing:-0.03em;}.cls-4{letter-spacing:0em;}</style></defs><title>logo</title><text class="cls-1" transform="translate(100.18 70.74) scale(0.82 1)">Help<tspan class="cls-2" x="108.48" y="0">C</tspan><tspan class="cls-3" x="142.24" y="0">o</tspan><tspan class="cls-4" x="169.7" y="0">vid</tspan></text><path class="cls-5" d="M48.93,80.41C80.24,60.09,78.88,42.33,78.88,42.33a16.26,16.26,0,0,0-29.95-8.77A16.26,16.26,0,0,0,19,42.33S17.62,60.09,48.93,80.41Z" transform="translate(0 -26.07)"/><path class="cls-2" d="M21.89,77l-2.28,2.28a6.08,6.08,0,0,0,0,8.61l4.57,4.57-4.05,4.05L9.2,85.62l.11-13.37a6.09,6.09,0,0,0-6.09-6.09H0V88.63l18.14,19.1A12.18,12.18,0,1,0,35.36,90.5Z" transform="translate(0 -26.07)"/><path class="cls-2" d="M18.63,115.09v8.84h20.3V112.25a17.93,17.93,0,0,1-20.3,2.84Z" transform="translate(0 -26.07)"/><path class="cls-2" d="M94.63,66.16a6.09,6.09,0,0,0-6.09,6.09l.12,13.37L77.73,96.54l-4.06-4.05,4.58-4.57a6.1,6.1,0,0,0,0-8.61L76,77,62.49,90.5a12.18,12.18,0,1,0,17.23,17.23l18.13-19.1V66.16Z" transform="translate(0 -26.07)"/><path class="cls-2" d="M58.92,112.25v11.68H79.23v-8.84a17.94,17.94,0,0,1-20.31-2.84Z" transform="translate(0 -26.07)"/></svg>