<svg id="Capa_1" enable-background="new 0 0 512 512" height="512" viewBox="0 0 512 512" width="512" xmlns="http://www.w3.org/2000/svg"><g><path d="m424.318 70.642-33.672-36.116-33.668 25.493-33.666-25.493-33.666 25.493-33.646-25.478-20.001 233.181 20.001 209.752h80.654l87.673-20.001z" fill="#e3a76f"/><path d="m255.98 34.526-33.662 25.493-33.661-25.493-33.658 25.493-33.663-25.493-33.663 36.116v406.832h168.327v-442.933z" fill="#f2d1a5"/><path d="m116.999 322.13h-29.326v-29.326c0-19.006 15.407-34.413 34.413-34.413h29.326v29.326c-.001 19.006-15.408 34.413-34.413 34.413z" fill="#00969b"/><path d="m456.196 186.692v-30.002h-31.869l-20.001 50.003z" fill="#07485e"/><path d="m424.327 156.69h-31.869v30.002l31.869 20.001z" fill="#0b799d"/><path d="m456.196 215.805v-29.113h-31.869l-20.001 162.061 107.674-20.002v-31.273c0-37.173-23.147-68.919-55.804-81.673z" fill="#7ed8f6"/><path d="m424.327 186.692h-31.869v29.113c-32.657 12.753-55.804 44.5-55.804 81.673v31.273l87.673 20.001z" fill="#beebfa"/><path d="m404.326 423.114 107.674-20.001v-74.362h-87.673z" fill="#2fc0f0"/><path d="m424.327 328.751h-87.673v74.362l87.673 20.001z" fill="#7ed8f6"/><path d="m424.327 477.474h87.673v-74.361h-87.673l-20.001 37.181z" fill="#7ed8f6"/><path d="m336.654 403.113h87.673v74.362h-87.673z" fill="#beebfa"/><path d="m87.673 302.129-20.001 87.673 20.001 87.673c48.42 0 87.673-39.253 87.673-87.673 0-48.421-39.253-87.673-87.673-87.673z" fill="#ff7c48"/><path d="m0 389.802c0 48.42 39.253 87.673 87.673 87.673v-175.346c-48.42 0-87.673 39.252-87.673 87.673z" fill="#ffb655"/></g></svg>