<?xml version="1.0" encoding="iso-8859-1"?>
<!-- Generator: Adobe Illustrator 19.0.0, SVG Export Plug-In . SVG Version: 6.00 Build 0)  -->
<svg version="1.1" id="Capa_1" xmlns="http://www.w3.org/2000/svg" xmlns:xlink="http://www.w3.org/1999/xlink" x="0px" y="0px"
	 viewBox="0 0 512 512" style="enable-background:new 0 0 512 512;" xml:space="preserve">
<path style="fill:#FC025C;" d="M171,127h-30v-26c0-24.813,20.187-45,45-45h85v30h-85c-8.271,0-15,6.729-15,15V127z"/>
<path style="fill:#CD0045;" d="M156,101.192V127h15v-26c0-8.271,6.729-15,15-15h85V71.192h-85
	C169.431,71.192,156,84.624,156,101.192z"/>
<path style="fill:#CAD4E4;" d="M301,422h-90V212h90V422z"/>
<path style="fill:#ADB5CC;" d="M301,422h-45V212h45V422z"/>
<path style="fill:#4D5A68;" d="M241,202H71v-35c0-30.327,24.673-55,55-55h60c30.327,0,55,24.673,55,55V202z"/>
<path style="fill:#314650;" d="M241,167c0-30.327-24.673-55-55-55h-30v90h85V167z"/>
<path style="fill:#FFDE82;" d="M241,512H71V172h170V512z"/>
<rect x="156" y="172" style="fill:#FFBF7B;" width="85" height="340"/>
<path style="fill:#4D5A68;" d="M241,512H71v-80h170V512z"/>
<path style="fill:#314650;" d="M241,512h-85v-80h85V512z"/>
<path style="fill:#4D5A68;" d="M441,202H271v-35c0-30.327,24.673-55,55-55h60c30.327,0,55,24.673,55,55V202z"/>
<path style="fill:#314650;" d="M441,167c0-30.327-24.673-55-55-55h-30v90h85V167z"/>
<path style="fill:#FFDE82;" d="M441,512H271V172h170V512z"/>
<rect x="356" y="172" style="fill:#FFBF7B;" width="85" height="340"/>
<path style="fill:#4D5A68;" d="M441,512H271v-80h170V512z"/>
<path style="fill:#314650;" d="M441,512h-85v-80h85V512z"/>
<path style="fill:#00BDD1;" d="M327,142c-39.149,0-71-31.851-71-71s31.851-71,71-71s71,31.851,71,71S366.149,142,327,142z"/>
<path style="fill:#008EB1;" d="M327,0v142c39.149,0,71-31.851,71-71S366.149,0,327,0z"/>
<rect x="303.458" y="46.246" transform="matrix(-0.7071 -0.7071 0.7071 -0.7071 498.266 328.8811)" style="fill:#FC025C;" width="27.577" height="30"/>
<g>
</g>
<g>
</g>
<g>
</g>
<g>
</g>
<g>
</g>
<g>
</g>
<g>
</g>
<g>
</g>
<g>
</g>
<g>
</g>
<g>
</g>
<g>
</g>
<g>
</g>
<g>
</g>
<g>
</g>
</svg>
