<svg id="Capa_1" enable-background="new 0 0 512 512" height="512" viewBox="0 0 512 512" width="512" xmlns="http://www.w3.org/2000/svg"><g><path d="m0 48.525v146.475h256l-165-170.872z" fill="#54d8ff"/><path d="m512 48.525-91-24.397-165 170.872h256z" fill="#43b7d9"/><path d="m331 0-180 75 105 437h165v-487.872z" fill="#54d8ff"/><path d="m181 0-90 24.128v487.872h165v-467z" fill="#8de5ff"/><path d="m331 0h-75l-30 37.5 30 37.5c41.421 0 75-33.579 75-75z" fill="#43b7d9"/><path d="m256 75v-75h-75c0 41.421 33.579 75 75 75z" fill="#54d8ff"/><path d="m271 195h-15l-10 15 10 15h15z" fill="#c6f2ff"/><path d="m241 195h15v30h-15z" fill="#fff"/><path d="m271 135h-15l-10 15 10 15h15z" fill="#c6f2ff"/><path d="m241 135h15v30h-15z" fill="#fff"/></g></svg>